# AST/ASF file generated using VICON BodyLanguage
# -----------------------------------------------
:version 1.10
:name VICON
:units
  mass 1.0
  length 0.45
  angle deg
:documentation
   .ast/.asf automatically generated from VICON data using
   VICON BodyBuilder and BodyLanguage model FoxedUp or BRILLIANT.MOD
:root
   order TX TY TZ RX RY RZ
   axis XYZ
   position 0 0 0  
   orientation 0 0 0 
:bonedata
  begin
     id 1 
     name lhipjoint
     direction 0.521452 -0.77106 0.36545 
     length 2.0933 
     axis 0 0 0  XYZ
  end
  begin
     id 2 
     name lfemur
     direction 0.34202 -0.939693 0  
     length 6.83441  
     axis 0 0 20  XYZ
    dof rx ry rz
    limits (-160.0 20.0)
           (-70.0 70.0)
           (-60.0 70.0)
  end
  begin
     id 3 
     name ltibia
     direction 0.34202 -0.939693 0   
     length 7.28749   
     axis 0 0 20   XYZ
    dof rx
    limits (-10.0 170.0)
  end
  begin
     id 4 
     name lfoot
     direction 0.100608 -0.276418 0.955757   
     length 1.52195   
     axis -90 7.62852e-016 20   XYZ
    dof rx rz
    limits (-45.0 90.0)
           (-70.0 20.0)
  end
  begin
     id 5 
     name ltoes
     direction 1.53558e-011 -4.21907e-011 1   
     length 0.770459   
     axis -90 7.62852e-016 20   XYZ
    dof rx
    limits (-90.0 20.0)
  end
  begin
     id 6 
     name rhipjoint
     direction -0.488071 -0.788702 0.373812   
     length 2.04648  
     axis 0 0 0  XYZ 
  end
  begin
     id 7 
     name rfemur
     direction -0.34202 -0.939693 0   
     length 6.92583   
     axis 0 0 -20   XYZ
    dof rx ry rz
    limits (-160.0 20.0)
           (-70.0 70.0)
           (-70.0 60.0)
  end
  begin
     id 8 
     name rtibia
     direction -0.34202 -0.939693 0   
     length 7.41043   
     axis 0 0 -20   XYZ
    dof rx
    limits (-10.0 170.0)
 end
 begin
     id 9 
     name rfoot
     direction -0.0784433 -0.215521 0.973343   
     length 1.67708  
     axis -90 -7.62852e-016 -20   XYZ
    dof rx rz
    limits (-45.0 90.0)
           (-20.0 70.0)
  end
  begin
     id 10 
     name rtoes
     direction -1.53551e-011 -4.21842e-011 1   
     length 0.849787   
     axis -90 -7.62852e-016 -20   XYZ
    dof rx
    limits (-90.0 20.0)
  end
  begin
     id 11 
     name lowerback
     direction -0.0122332 0.997575 -0.0685192   
     length 1.98724   
     axis 0 0 0   XYZ
    dof rx ry rz
    limits (-20.0 45.0)
           (-30.0 30.0)
           (-30.0 30.0)
  end
  begin
     id 12 
     name upperback
     direction 0.0182347 0.999724 -0.0148421   
     length 1.99029   
     axis 0 0 0   XYZ
    dof rx ry rz
    limits (-20.0 45.0)
           (-30.0 30.0)
           (-30.0 30.0)
  end
  begin
     id 13 
     name thorax
     direction 0.0242908 0.99956 0.0170184   
     length 1.99573   
     axis 0 0 0   XYZ
    dof rx ry rz
    limits (-20.0 45.0)
           (-30.0 30.0)
           (-30.0 30.0)
  end
  begin
     id 14 
     name lowerneck
     direction 0.0654488 0.985533 0.156338   
     length 1.4285   
     axis 0 0 0   XYZ
    dof rx ry rz
    limits (-20.0 45.0)
           (-30.0 30.0)
           (-30.0 30.0)
  end
  begin
     id 15 
     name upperneck
     direction -0.02953 0.998556 -0.0448842   
     length 1.44709   
     axis 0 0 0   XYZ
    dof rx ry rz
    limits (-20.0 45.0)
           (-30.0 30.0)
           (-30.0 30.0)
  end
  begin
     id 16
     name head
     direction -0.0155588 0.999386 -0.0314063  
     length 1.44689  
     axis 0 0 0   XYZ
    dof rx ry rz
    limits (-20.0 45.0)
           (-30.0 30.0)
           (-30.0 30.0)
  end
  begin
     id 17 
     name lclavicle
     direction 0.968229 0.236071 -0.0824755  
     length 3.60593  
     axis 0 0 0   XYZ
    dof ry rz
    limits (-20.0 10.0)
           (0.0 20.0)
  end
  begin
     id 18 
     name lhumerus
     direction 1 -4.48968e-011 7.8138e-029   
     length 5.06035   
     axis 180 -30 -90   XYZ
    dof rx ry rz
    limits (-60.0 90.0)
           (-90.0 90.0)
           (-90.0 90.0)
  end
  begin
     id 19
     name lradius
     direction 1 -4.48967e-011 9.02887e-028   
     length 3.1478   
     axis 180 -30 -90   XYZ
    dof rx
    limits (-10.0 170.0)
  end
  begin
     id 20
     name lwrist
     direction 1 -4.48961e-011 7.20928e-028   
     length 1.5739   
     axis -5.52449e-016 90 90   XYZ
    dof ry
    limits (-180.0 0.0)
 end
  begin
     id 21 
     name lhand
     direction 1 -4.48972e-011 1.44186e-027   
     length 0.606747   
     axis -9.20027e-016 90 90   XYZ
    dof rx rz
    limits (-90.0 90.0)
           (-45.0 45.0)
  end
  begin
     id 22 
     name lfingers
     direction 1 -4.48943e-011 2.88371e-027   
     length 0.489175   
     axis -1.84005e-015 90 90   XYZ
    dof rx
    limits (0.0 90.0)
  end
  begin
     id 23
     name lthumb
     direction 0.707107 -6.34917e-011 0.707107   
     length 0.70236   
     axis -90 45 2.85299e-015   XYZ
    dof rx rz
    limits (-45.0 45.0)
           (-45.0 45.0)
  end
  begin
     id 24 
     name rclavicle
     direction -0.978165 0.207816 0.0022268   
     length 3.35425  
     axis 0 0 0   XYZ 
    dof ry rz
    limits (-10.0 20.0)
           (-20.0 0.0)
  end
  begin
     id 25 
     name rhumerus
     direction -1 -4.48964e-011 -4.02159e-027  
     length 5.12273   
     axis 180 30 90   XYZ
    dof rx ry rz
    limits (-90.0 60.0)
           (-90.0 90.0)
           (-90.0 90.0)
  end
  begin
     id 26 
     name rradius
     direction -1 -4.48966e-011 1.62746e-027   
     length 3.422   
     axis 180 30 90   XYZ
    dof rx
    limits (-10.0 170.0)
  end
  begin
     id 27 
     name rwrist
     direction -1 -4.4896e-011 7.20928e-028   
     length 1.711   
     axis -5.52449e-016 -90 -90   XYZ
    dof ry
    limits (-180.0 0.0)
  end
  begin
     id 28
     name rhand
     direction -1 -4.48979e-011 1.44186e-027   
     length 0.704599   
     axis -9.20027e-016 -90 -90   XYZ
    dof rx rz
    limits (-90.0 90.0)
           (-45.0 45.0)
  end
  begin
     id 29
     name rfingers
     direction -1 -4.48962e-011 2.88371e-027   
     length 0.568066   
     axis -1.84005e-015 -90 -90   XYZ
    dof rx
    limits (0.0 90.0)
  end
  begin
     id 30
     name rthumb
     direction -0.707107 -6.34949e-011 0.707107   
     length 0.815633   
     axis -90 -45 -2.85299e-015   XYZ
    dof rx rz
    limits (-45.0 45.0)
           (-45.0 45.0)
  end
:hierarchy
  begin
    root lhipjoint rhipjoint lowerback
    lhipjoint lfemur
    lfemur ltibia
    ltibia lfoot
    lfoot ltoes
    rhipjoint rfemur
    rfemur rtibia
    rtibia rfoot
    rfoot rtoes
    lowerback upperback
    upperback thorax
    thorax lowerneck lclavicle rclavicle
    lowerneck upperneck
    upperneck head
    lclavicle lhumerus
    lhumerus lradius
    lradius lwrist
    lwrist lhand lthumb
    lhand lfingers
    rclavicle rhumerus
    rhumerus rradius
    rradius rwrist
    rwrist rhand rthumb
    rhand rfingers
  end

#!OML:ASF E:\id_vita\Project 1\Capture day 1\Session 1\Male1.ASF
:FULLY-SPECIFIED
:DEGREES
412
root 40.9227 13.9858 -0.0229098 -0.187926 -82.3937 43.2029
lowerback 26.9261 -7.10358 4.5902
upperback 12.4182 -8.97522 -4.12499
thorax -2.20979 -4.41944 -4.50809
lowerneck -12.8385 3.7933 -4.15957
upperneck 44.2336 2.76722 2.89096
head 18.8364 0.254834 2.49474
rclavicle 1.1291e-013 -2.28602e-014
rhumerus 55.1718 19.4228 -69.2856
rradius 32.9199
rwrist 30.5566
rhand -28.9376 32.9893
rfingers 7.12502
rthumb -2.29144 3.02182
lclavicle 1.1291e-013 -2.28602e-014
lhumerus 56.1206 -15.1881 32.3252
lradius 28.2442
lwrist -17.152
lhand -42.9205 87.8381
lfingers 7.12502
lthumb -15.7818 242.785
rfemur -32.9652 -1.14904 23.8569
rtibia 48.2863
rfoot -43.3823 -27.9663
rtoes -12.3612
lfemur -87.2544 -3.77017 -23.818
ltibia 72.2591
lfoot -33.3354 -2.37275
ltoes -2.72225
413
root 40.9047 13.9795 -0.0268737 -0.142985 -82.3882 43.2798
lowerback 26.8569 -7.21597 4.73233
upperback 12.37 -9.08055 -4.13933
thorax -2.26458 -4.46503 -4.57137
lowerneck -12.8514 3.90373 -3.981
upperneck 44.1889 3.03369 2.53765
head 18.8135 0.344844 2.33892
rclavicle 4.45278e-014 3.47873e-014
rhumerus 55.6254 19.7711 -68.8359
rradius 32.3982
rwrist 30.2277
rhand -28.7888 32.7414
rfingers 7.12502
rthumb -2.14774 2.77244
lclavicle 4.45278e-014 3.47873e-014
lhumerus 55.9244 -14.7691 32.6598
lradius 28.0687
lwrist -18.2718
lhand -42.7973 86.887
lfingers 7.12502
lthumb -15.6631 243.727
rfemur -32.9967 -1.5502 23.9475
rtibia 48.1801
rfoot -43.2682 -27.9496
rtoes -13.5908
lfemur -87.3287 -3.96695 -23.5266
ltibia 72.3595
lfoot -33.3317 -2.35108
ltoes -2.26851
414
root 40.8838 13.9745 -0.0313329 -0.28876 -82.4628 43.5946
lowerback 26.7138 -7.28597 4.78558
upperback 12.3278 -9.15893 -4.16697
thorax -2.26689 -4.50007 -4.61619
lowerneck -12.8147 3.94163 -3.85484
upperneck 44.1117 3.15474 2.29979
head 18.7602 0.384868 2.21988
rclavicle -1.43125e-014 1.63003e-014
rhumerus 56.0926 20.0158 -68.7578
rradius 31.8608
rwrist 30.0086
rhand -28.7032 32.5837
rfingers 7.12502
rthumb -2.06504 2.61392
lclavicle -1.43125e-014 1.63003e-014
lhumerus 55.7813 -14.5162 32.5356
lradius 28.0581
lwrist -18.5393
lhand -43.0979 86.066
lfingers 7.12502
lthumb -15.9527 244.571
rfemur -33.0681 -1.81313 23.9926
rtibia 48.1041
rfoot -43.3256 -27.6413
rtoes -14.046
lfemur -87.4183 -4.06115 -23.3143
ltibia 72.4103
lfoot -33.3306 -2.12212
ltoes -4.54843
415
root 40.8631 13.9658 -0.0329984 -0.84286 -82.4483 44.4477
lowerback 26.4613 -7.35485 4.82939
upperback 12.2319 -9.23633 -4.19306
thorax -2.27803 -4.53416 -4.66093
lowerneck -12.7432 3.95396 -3.8411
upperneck 44.1032 3.18197 2.23996
head 18.736 0.38926 2.19098
rclavicle -1.59028e-015 5.24792e-014
rhumerus 56.1448 19.9469 -69.2687
rradius 31.6617
rwrist 30.3992
rhand -28.7547 32.832
rfingers 7.12502
rthumb -2.11484 2.86276
lclavicle -1.59028e-015 5.24792e-014
lhumerus 55.7123 -14.4638 32.2116
lradius 28.0926
lwrist -18.3567
lhand -43.2703 86.2859
lfingers 7.12502
lthumb -16.1187 244.364
rfemur -33.3089 -1.90643 23.9135
rtibia 48.0906
rfoot -43.1425 -27.8637
rtoes -14.6675
lfemur -87.676 -4.27365 -23.2343
ltibia 72.4425
lfoot -33.2978 -1.54893
ltoes -2.36647
416
root 40.8402 13.9589 -0.0344946 -2.62472 -82.2422 46.1771
lowerback 26.7117 -7.48932 4.72539
upperback 12.1457 -9.40926 -4.20128
thorax -2.49971 -4.62223 -4.52453
lowerneck -12.6509 4.02993 -3.91909
upperneck 44.1796 3.32107 2.16773
head 18.7519 0.416515 2.19451
rclavicle 4.6118e-014 9.14409e-015
rhumerus 56.2299 20.2379 -69.0805
rradius 31.3599
rwrist 29.7609
rhand -28.6162 32.5109
rfingers 7.12502
rthumb -1.98101 2.5404
lclavicle 4.6118e-014 9.14409e-015
lhumerus 55.5332 -14.465 32.0413
lradius 28.1157
lwrist -18.1791
lhand -43.1947 87.6696
lfingers 7.12502
lthumb -16.0458 242.975
rfemur -33.1459 -2.70321 23.7565
rtibia 48.056
rfoot -43.1059 -27.7852
rtoes -15.4425
lfemur -87.4441 -4.65765 -23.3117
ltibia 72.4275
lfoot -33.2661 -0.855119
ltoes -7.98139
417
root 40.8177 13.9501 -0.0368821 -3.44731 -82.3245 47.1128
lowerback 26.6652 -7.52253 4.66978
upperback 12.0875 -9.45823 -4.16521
thorax -2.53622 -4.64836 -4.43893
lowerneck -12.6862 4.08821 -4.04329
upperneck 44.2194 3.49811 2.03482
head 18.7799 0.445911 2.18693
rclavicle 0 -4.37326e-014
rhumerus 56.4797 20.4389 -69.0812
rradius 30.9957
rwrist 29.0897
rhand -28.6176 32.1925
rfingers 7.12502
rthumb -1.98236 2.22201
lclavicle 0 -4.37326e-014
lhumerus 55.4495 -14.6428 31.3244
lradius 28.2519
lwrist -17.2538
lhand -43.2983 85.5879
lfingers 7.12502
lthumb -16.1456 245.065
rfemur -33.1216 -3.07916 23.7287
rtibia 47.9868
rfoot -43.4595 -27.1977
rtoes -15.5165
lfemur -87.4829 -4.74887 -23.1953
ltibia 72.4735
lfoot -33.1398 -0.437402
ltoes -10.0837
418
root 40.7969 13.9565 -0.0413472 -3.50728 -82.3618 47.3224
lowerback 26.5528 -7.61813 4.74626
upperback 12.0733 -9.56091 -4.15123
thorax -2.51995 -4.6948 -4.4433
lowerneck -12.7679 4.12537 -3.92955
upperneck 44.1062 3.71731 1.62654
head 18.7425 0.503758 2.00989
rclavicle -1.59028e-014 -4.77083e-015
rhumerus 56.6911 20.6389 -69.3876
rradius 30.7341
rwrist 29.2088
rhand -28.6349 32.312
rfingers 7.12502
rthumb -1.99909 2.34159
lclavicle -1.59028e-014 -4.77083e-015
lhumerus 55.3107 -14.1626 31.4724
lradius 28.19
lwrist -17.9879
lhand -42.2625 86.9066
lfingers 7.12502
lthumb -15.148 243.668
rfemur -33.1355 -3.32107 23.7961
rtibia 47.8507
rfoot -43.974 -26.3843
rtoes -15.2169
lfemur -87.6336 -4.84389 -23.0343
ltibia 72.5397
lfoot -33.0675 -0.647636
ltoes -8.07388
